{"title":"Sochi 2014 Olympic Winter Games - Opening Ceremony (minus athlet","uid":9589045,"size":3348592644,"categoryP":"video","categoryS":"hd___tv_shows","magnet":"?xt=urn:btih:1b6cf625b08b516944327d68f0476e9a6887e44a&amp;dn=Sochi+2014+Olympic+Winter+Games+-+Opening+Ceremony+%28minus+athlet&amp;tr=udp%3A%2F%2Ftracker.openbittorrent.com%3A80&amp;tr=udp%3A%2F%2Fopen.demonii.com%3A1337&amp;tr=udp%3A%2F%2Ftracker.coppersurfer.tk%3A6969&amp;tr=udp%3A%2F%2Fexodus.desync.com%3A6969","seeders":1,"leechers":0,"uploader":"ozDude77","files":1,"time":1391871688,"description":"Recorded from Australian free-to-air digital broadcast on channel One.\n8 February 2014\n\nHas a few minor glitches from digital TV reception, but pretty smooth overall.\n\nThis version is ABRIDGED meaning that the long, boring bits have been cut out.  The two removed sections are the athlete entrances (except for Greece and Australia) and the two speeches.  Everything else remains.\n\nI will also upload a full unabridged version also.\n\nGeneral\nComplete name                  : Sochi 2014 Olympic Winter Games - Opening Ceremony (minus athletes and speeches) - Australian broadcast 1080p x264.mp4\nFormat                         : MPEG-4\nFormat profile                 : Base Media / Version 2\nCodec ID                       : mp42\nFile size                      : 3.12 GiB\nDuration                       : 1h 51mn\nOverall bit rate mode          : Variable\nOverall bit rate               : 4 002 Kbps\nEncoded date                   : UTC 2014-02-08 04:06:02\nTagged date                    : UTC 2014-02-08 11:53:30\nWriting application            : HandBrake 0.9.9 2013052900\n\nVideo\nID                             : 1\nFormat                         : AVC\nFormat/Info                    : Advanced Video Codec\nFormat profile                 : &lt;a class=&quot;__cf_email__&quot; href=&quot;/cdn-cgi/l/email-protection&quot; data-cfemail=&quot;b6fedfd1def6fa829886&quot;&gt;[email&amp;#160;protected]&lt;/a&gt;&lt;script cf-hash='f9e31' type=&quot;text/javascript&quot;&gt;\n/* &lt;![CDATA[ */!function(){try{var t=&quot;currentScript&quot;in document?document.currentScript:function(){for(var t=document.getElementsByTagName(&quot;script&quot;),e=t.length;e--;)if(t[e].getAttribute(&quot;cf-hash&quot;))return t[e]}();if(t&amp;&amp;t.previousSibling){var e,r,n,i,c=t.previousSibling,a=c.getAttribute(&quot;data-cfemail&quot;);if(a){for(e=&quot;&quot;,r=parseInt(a.substr(0,2),16),n=2;a.length-n;n+=2)i=parseInt(a.substr(n,2),16)^r,e+=String.fromCharCode(i);e=document.createTextNode(e),c.parentNode.replaceChild(e,c)}}}catch(u){}}();/* ]]&gt; */&lt;/script&gt;\nFormat settings, CABAC         : Yes\nFormat settings, ReFrames      : 4 frames\nCodec ID                       : avc1\nCodec ID/Info                  : Advanced Video Coding\nDuration                       : 1h 51mn\nBit rate                       : 3 871 Kbps\nWidth                          : 1 440 pixels\nHeight                         : 1 072 pixels\nDisplay aspect ratio           : 16:9\nFrame rate mode                : Variable\nFrame rate                     : 25.000 fps\nMinimum frame rate             : 1.786 fps\nMaximum frame rate             : 25.000 fps\nColor space                    : YUV\nChroma subsampling             : 4:2:0\nBit depth                      : 8 bits\nScan type                      : Progressive\nBits/(Pixel*Frame)             : 0.100\nStream size                    : 3.02 GiB (97%)\nWriting library                : x264 core 130 r2273 b3065e6\nEncoding settings              : cabac=1 / ref=3 / deblock=1:0:0 / analyse=0x3:0x113 / me=hex / subme=7 / psy=1 / psy_rd=1.00:0.00 / mixed_ref=1 / me_range=16 / chroma_me=1 / trellis=1 / 8x8dct=1 / cqm=0 / deadzone=21,11 / fast_pskip=1 / chroma_qp_offset=-2 / threads=12 / lookahead_threads=2 / sliced_threads=0 / nr=0 / decimate=1 / interlaced=0 / bluray_compat=0 / constrained_intra=0 / bframes=3 / b_pyramid=2 / b_adapt=1 / b_bias=0 / direct=1 / weightb=1 / open_gop=0 / weightp=2 / keyint=250 / keyint_min=25 / scenecut=40 / intra_refresh=0 / rc_lookahead=40 / rc=crf / mbtree=1 / crf=23.0 / qcomp=0.60 / qpmin=0 / qpmax=69 / qpstep=4 / ip_ratio=1.40 / aq=1:1.00\nEncoded date                   : UTC 2014-02-08 04:06:02\nTagged date                    : UTC 2014-02-08 11:53:11\n\nAudio\nID                             : 2\nFormat                         : AAC\nFormat/Info                    : Advanced Audio Codec\nFormat profile                 : LC\nCodec ID                       : 40\nDuration                       : 1h 51mn\nBit rate mode                  : Variable\nBit rate                       : 128 Kbps\nMaximum bit rate               : 207 Kbps\nChannel(s)                     : 2 channels\nChannel positions              : Front: L R\nSampling rate                  : 48.0 KHz\nCompression mode               : Lossy\nStream size                    : 102 MiB (3%)\nEncoded date                   : UTC 2014-02-08 04:06:02\nTagged date                    : UTC 2014-02-08 11:53:10\n","torrent":{"xt":"urn:btih:1b6cf625b08b516944327d68f0476e9a6887e44a","amp;dn":"Sochi+2014+Olympic+Winter+Games+-+Opening+Ceremony+%28minus+athlet","amp;tr":["udp%3A%2F%2Ftracker.openbittorrent.com%3A80","udp%3A%2F%2Fopen.demonii.com%3A1337","udp%3A%2F%2Ftracker.coppersurfer.tk%3A6969","udp%3A%2F%2Fexodus.desync.com%3A6969"],"infoHash":"1b6cf625b08b516944327d68f0476e9a6887e44a","infoHashBuffer":{"type":"Buffer","data":[27,108,246,37,176,139,81,105,68,50,125,104,240,71,110,154,104,135,228,74]},"announce":[],"urlList":[]}}